<svg width="376" height="351" viewBox="0 0 376 351" fill="none" xmlns="http://www.w3.org/2000/svg">
<path d="M114.04 297.16L119.4 313.28H119.6L125.2 295.96L122.76 295.8V292.4H131.96V295.64L130.64 295.76C130.293 295.787 130.04 295.893 129.88 296.08C129.72 296.24 129.56 296.533 129.4 296.96L121.84 319H116.64L108.48 295.92L106.2 295.8V292.4H116.52V295.64L115.2 295.76C114.373 295.813 113.96 296.133 113.96 296.72C113.96 296.853 113.987 297 114.04 297.16Z" fill="white"/>
<path d="M148.566 291.92C151.739 291.92 154.392 293.04 156.526 295.28C158.659 297.52 159.726 300.947 159.726 305.56C159.726 310.147 158.659 313.627 156.526 316C154.419 318.347 151.552 319.52 147.926 319.52C144.326 319.52 141.499 318.347 139.446 316C137.392 313.653 136.366 310.24 136.366 305.76C136.366 303.307 136.726 301.16 137.446 299.32C138.166 297.453 139.112 296.013 140.286 295C142.659 292.947 145.419 291.92 148.566 291.92ZM141.366 305.56C141.366 312.173 143.659 315.48 148.246 315.48C150.699 315.48 152.419 314.467 153.406 312.44C154.312 310.653 154.766 308.467 154.766 305.88C154.766 303.56 154.366 301.427 153.566 299.48C153.112 298.413 152.419 297.573 151.486 296.96C150.579 296.347 149.392 296.04 147.926 296.04C146.459 296.04 145.192 296.52 144.126 297.48C143.086 298.44 142.366 299.6 141.966 300.96C141.566 302.32 141.366 303.853 141.366 305.56Z" fill="white"/>
<path d="M169.088 314.32V295.92L166.808 295.8V292.4H176.488V295.64L175.168 295.76C174.395 295.84 174.008 296.267 174.008 297.04V315.48L176.288 315.6V319H166.608V315.76L167.928 315.64C168.328 315.587 168.621 315.48 168.808 315.32C168.995 315.133 169.088 314.8 169.088 314.32Z" fill="white"/>
<path d="M199.034 296.64C198.74 296.133 197.647 295.88 195.754 295.88C193.274 295.88 191.394 296.72 190.114 298.4C188.834 300.08 188.194 302.507 188.194 305.68C188.194 312.267 190.66 315.56 195.594 315.56C195.674 315.56 196.02 315.56 196.634 315.56C197.274 315.56 197.874 315.48 198.434 315.32C198.994 315.133 199.327 314.947 199.434 314.76C199.54 314.573 199.594 314.28 199.594 313.88V310.68L203.674 310.96V317.88C201.594 318.973 198.954 319.52 195.754 319.52C191.674 319.52 188.554 318.373 186.394 316.08C184.26 313.787 183.194 310.373 183.194 305.84C183.194 303.333 183.554 301.147 184.274 299.28C184.994 297.413 185.967 295.96 187.194 294.92C189.594 292.92 192.447 291.92 195.754 291.92C198.42 291.92 200.927 292.467 203.274 293.56V300.36L199.194 300.64V297.52C199.194 297.12 199.14 296.827 199.034 296.64Z" fill="white"/>
<path d="M230.016 319H211.016V315.76L212.336 315.64C213.11 315.56 213.496 315.187 213.496 314.52V295.92L211.216 295.8V292.4H229.536V299.04L225.456 299.32V297.72C225.456 297.267 225.39 296.947 225.256 296.76C225.123 296.573 224.803 296.48 224.296 296.48H218.376V303.32H227.616V307.4H218.376V314.88H224.816C225.296 314.88 225.603 314.787 225.736 314.6C225.87 314.387 225.936 314.053 225.936 313.6V311.6L230.016 311.88V319Z" fill="white"/>
<path d="M249.177 292.4H260.457C266.217 292.4 269.097 294.627 269.097 299.08C269.097 301.533 267.87 303.4 265.417 304.68C266.99 305.08 268.217 305.813 269.097 306.88C270.004 307.947 270.457 309.333 270.457 311.04C270.457 313.627 269.577 315.6 267.817 316.96C266.084 318.32 263.55 319 260.217 319H248.977V315.76L250.297 315.64C251.07 315.56 251.457 315.187 251.457 314.52V295.92L249.177 295.8V292.4ZM256.337 306.88V315.24H260.097C263.564 315.24 265.297 313.827 265.297 311C265.297 309.667 264.857 308.653 263.977 307.96C263.124 307.24 261.897 306.88 260.297 306.88H256.337ZM256.337 296.08V303.32H259.297C260.95 303.32 262.164 302.987 262.937 302.32C263.737 301.627 264.137 300.667 264.137 299.44C264.137 298.213 263.737 297.347 262.937 296.84C262.164 296.333 261.044 296.08 259.577 296.08H256.337Z" fill="white"/>
<path d="M277.618 314.52L284.058 295.88L281.538 295.64V292.4H290.698L298.858 315.48H298.898L301.178 315.6V319H290.858V315.76L292.378 315.64C292.832 315.587 293.138 315.48 293.298 315.32C293.458 315.16 293.472 314.867 293.338 314.44L292.498 311.96H283.138L281.938 315.48L284.338 315.6V319H275.098V315.76L276.418 315.64C276.978 315.587 277.378 315.213 277.618 314.52ZM287.818 296.88L284.098 308.28H291.538L287.938 296.88H287.818Z" fill="white"/>
<path d="M306.663 319V315.76L308.103 315.64C308.796 315.587 309.143 315.213 309.143 314.52V295.92L306.863 295.8V292.4H314.063L325.383 310.76H325.463V295.92L322.823 295.8V292.4H332.583V295.64L331.143 295.76C330.503 295.813 330.183 296.227 330.183 297V319H325.503L313.943 300.36H313.863V315.48L316.463 315.6V319H306.663Z" fill="white"/>
<path d="M341.346 314.32V295.92L339.066 295.8V292.4H348.666V295.64L347.346 295.76C346.573 295.84 346.186 296.267 346.186 297.04V305.84L354.346 295.92L352.106 295.8V292.4H361.466V295.64L360.146 295.76C359.639 295.813 359.106 296.187 358.546 296.88L352.866 303.84L359.946 315.48L362.066 315.6V319H351.826V315.76L353.066 315.64C353.599 315.587 353.866 315.373 353.866 315C353.866 314.84 353.799 314.627 353.666 314.36L349.706 307.52L346.186 311.76V315.48L348.466 315.6V319H338.866V315.76L340.186 315.64C340.586 315.587 340.879 315.48 341.066 315.32C341.253 315.133 341.346 314.8 341.346 314.32Z" fill="white"/>
<path d="M134.774 341.144C134.258 340.844 133.922 340.388 133.766 339.776C134.15 339.512 134.552 339.182 134.972 338.786C135.392 338.378 135.758 337.976 136.07 337.58C135.902 336.716 135.818 335.546 135.818 334.07V329.066C135.818 328.07 135.848 327.266 135.908 326.654C135.98 326.042 136.094 325.532 136.25 325.124C136.478 324.524 136.808 324.062 137.24 323.738C137.672 323.414 138.182 323.252 138.77 323.252C139.586 323.252 140.24 323.654 140.732 324.458C141.224 325.25 141.47 326.318 141.47 327.662C141.47 328.706 141.368 329.738 141.164 330.758C140.972 331.766 140.708 332.732 140.372 333.656C140.036 334.58 139.652 335.426 139.22 336.194C138.788 336.962 138.338 337.622 137.87 338.174C137.894 338.234 137.924 338.294 137.96 338.354C138.212 338.798 138.506 339.128 138.842 339.344C139.19 339.548 139.616 339.65 140.12 339.65C140.66 339.65 141.134 339.5 141.542 339.2C141.95 338.9 142.268 338.486 142.496 337.958C142.724 337.418 142.838 336.8 142.838 336.104C142.838 335.852 142.82 335.6 142.784 335.348C142.028 334.868 141.53 334.442 141.29 334.07C141.374 333.83 141.506 333.602 141.686 333.386C141.878 333.158 142.088 332.978 142.316 332.846C142.544 332.702 142.76 332.63 142.964 332.63C143.24 332.63 143.492 332.78 143.72 333.08C143.948 333.368 144.128 333.758 144.26 334.25C144.404 334.73 144.476 335.264 144.476 335.852C144.476 336.932 144.296 337.874 143.936 338.678C143.588 339.47 143.084 340.088 142.424 340.532C141.776 340.964 141.008 341.18 140.12 341.18C138.524 341.18 137.378 340.58 136.682 339.38C136.442 339.656 136.166 339.944 135.854 340.244C135.542 340.544 135.182 340.844 134.774 341.144ZM137.33 333.71C137.33 334.73 137.36 335.564 137.42 336.212C137.888 335.504 138.314 334.682 138.698 333.746C139.082 332.798 139.382 331.802 139.598 330.758C139.826 329.702 139.94 328.664 139.94 327.644C139.94 325.712 139.52 324.746 138.68 324.746C138.188 324.746 137.834 325.076 137.618 325.736C137.426 326.324 137.33 327.362 137.33 328.85V333.71Z" fill="white"/>
<path d="M151.506 341.252C150.342 341.252 149.448 340.862 148.824 340.082C148.212 339.302 147.906 338.168 147.906 336.68V334.61C147.534 334.814 147.108 334.976 146.628 335.096C146.16 335.216 145.662 335.276 145.134 335.276C144.546 335.276 144.036 335.198 143.604 335.042C143.28 334.934 143.118 334.724 143.118 334.412C143.118 334.184 143.184 333.992 143.316 333.836C143.436 333.68 143.58 333.602 143.748 333.602C143.796 333.602 143.838 333.608 143.874 333.62C143.91 333.62 143.946 333.626 143.982 333.638C144.186 333.686 144.39 333.728 144.594 333.764C144.798 333.788 145.008 333.8 145.224 333.8C145.836 333.8 146.418 333.662 146.97 333.386C147.534 333.098 147.924 332.75 148.14 332.342C148.392 332.318 148.65 332.348 148.914 332.432C149.178 332.516 149.388 332.66 149.544 332.864V336.662C149.544 337.706 149.712 338.468 150.048 338.948C150.384 339.416 150.912 339.65 151.632 339.65C153.348 339.65 154.206 338.396 154.206 335.888V332.504C154.302 332.468 154.422 332.438 154.566 332.414C154.71 332.39 154.86 332.378 155.016 332.378C155.304 332.378 155.58 332.42 155.844 332.504V340.01C156.096 339.83 156.354 339.656 156.618 339.488C156.894 339.308 157.128 339.164 157.32 339.056C157.56 339.2 157.746 339.386 157.878 339.614C158.01 339.842 158.094 340.106 158.13 340.406C157.95 340.526 157.716 340.682 157.428 340.874C157.152 341.054 156.87 341.24 156.582 341.432C156.294 341.624 156.048 341.786 155.844 341.918V346.04C155.844 348.848 154.818 350.252 152.766 350.252C151.818 350.252 151.074 349.97 150.534 349.406C150.006 348.842 149.742 348.068 149.742 347.084C149.742 344.888 151.242 342.83 154.242 340.91V340.262C153.558 340.922 152.646 341.252 151.506 341.252ZM151.362 347.048C151.362 347.564 151.482 347.966 151.722 348.254C151.962 348.554 152.292 348.704 152.712 348.704C153.732 348.704 154.242 347.816 154.242 346.04V342.818C152.322 344.174 151.362 345.584 151.362 347.048Z" fill="white"/>
<path d="M168.033 341.126C167.733 341.126 167.457 341.084 167.205 341V328.004C167.457 327.92 167.739 327.878 168.051 327.878C168.159 327.878 168.267 327.884 168.375 327.896C168.495 327.908 168.615 327.932 168.735 327.968L175.755 337.886V328.004C176.007 327.92 176.289 327.878 176.601 327.878C176.865 327.878 177.141 327.92 177.429 328.004V341C177.225 341.084 176.997 341.126 176.745 341.126C176.469 341.126 176.211 341.084 175.971 341L168.879 330.974V341C168.591 341.084 168.309 341.126 168.033 341.126Z" fill="white"/>
<path d="M184.999 341.252C184.183 341.252 183.451 341.06 182.803 340.676C182.167 340.28 181.663 339.74 181.291 339.056C180.931 338.372 180.751 337.598 180.751 336.734C180.751 335.87 180.937 335.102 181.309 334.43C181.681 333.758 182.185 333.23 182.821 332.846C183.469 332.45 184.195 332.252 184.999 332.252C185.803 332.252 186.523 332.45 187.159 332.846C187.795 333.23 188.293 333.758 188.653 334.43C189.025 335.102 189.211 335.87 189.211 336.734C189.211 337.598 189.025 338.372 188.653 339.056C188.293 339.74 187.795 340.28 187.159 340.676C186.535 341.06 185.815 341.252 184.999 341.252ZM184.981 339.704C185.749 339.704 186.361 339.434 186.817 338.894C187.285 338.354 187.519 337.634 187.519 336.734C187.519 335.858 187.285 335.15 186.817 334.61C186.361 334.07 185.755 333.8 184.999 333.8C184.243 333.8 183.625 334.076 183.145 334.628C182.677 335.168 182.443 335.882 182.443 336.77C182.443 337.646 182.671 338.354 183.127 338.894C183.595 339.434 184.213 339.704 184.981 339.704Z" fill="white"/>
<path d="M199.719 341.126C199.419 341.126 199.143 341.084 198.891 341V328.004C199.143 327.92 199.425 327.878 199.737 327.878C199.845 327.878 199.953 327.884 200.061 327.896C200.181 327.908 200.301 327.932 200.421 327.968L207.441 337.886V328.004C207.693 327.92 207.975 327.878 208.287 327.878C208.551 327.878 208.827 327.92 209.115 328.004V341C208.911 341.084 208.683 341.126 208.431 341.126C208.155 341.126 207.897 341.084 207.657 341L200.565 330.974V341C200.277 341.084 199.995 341.126 199.719 341.126Z" fill="white"/>
<path d="M216.236 341.252C215.48 341.252 214.814 341.072 214.238 340.712C213.674 340.352 213.23 339.848 212.906 339.2C212.594 338.552 212.438 337.808 212.438 336.968C212.438 336.056 212.618 335.246 212.978 334.538C213.338 333.83 213.824 333.272 214.436 332.864C215.06 332.456 215.768 332.252 216.56 332.252C216.98 332.252 217.394 332.336 217.802 332.504C218.21 332.66 218.552 332.876 218.828 333.152V332.414C218.936 332.378 219.062 332.348 219.206 332.324C219.35 332.3 219.5 332.288 219.656 332.288C219.944 332.288 220.214 332.33 220.466 332.414V337.85C220.466 338.51 220.55 338.984 220.718 339.272C220.898 339.56 221.18 339.704 221.564 339.704C221.732 339.704 221.858 339.776 221.942 339.92C222.038 340.064 222.086 340.256 222.086 340.496C222.086 340.688 222.032 340.862 221.924 341.018C221.828 341.174 221.666 341.252 221.438 341.252C220.298 341.252 219.53 340.784 219.134 339.848C218.786 340.292 218.366 340.64 217.874 340.892C217.382 341.132 216.836 341.252 216.236 341.252ZM214.112 336.968C214.112 337.82 214.304 338.492 214.688 338.984C215.084 339.464 215.624 339.704 216.308 339.704C217.064 339.704 217.67 339.446 218.126 338.93C218.594 338.414 218.828 337.736 218.828 336.896V334.88C218.588 334.556 218.282 334.298 217.91 334.106C217.538 333.902 217.154 333.8 216.758 333.8C216.242 333.8 215.786 333.938 215.39 334.214C214.994 334.49 214.682 334.868 214.454 335.348C214.226 335.816 214.112 336.356 214.112 336.968Z" fill="white"/>
<path d="M222.337 341.252C222.181 341.252 222.055 341.18 221.959 341.036C221.863 340.892 221.815 340.706 221.815 340.478C221.815 339.962 222.031 339.704 222.463 339.704C222.847 339.704 223.189 339.512 223.489 339.128C223.801 338.732 224.071 338.078 224.299 337.166L224.839 335.06C225.343 333.188 226.303 332.252 227.719 332.252C228.235 332.252 228.673 332.402 229.033 332.702C229.405 332.99 229.669 333.392 229.825 333.908C230.101 333.38 230.461 332.972 230.905 332.684C231.361 332.396 231.871 332.252 232.435 332.252C233.611 332.252 234.409 332.858 234.829 334.07C235.117 333.494 235.507 333.05 235.999 332.738C236.491 332.414 237.049 332.252 237.673 332.252C238.525 332.252 239.179 332.522 239.635 333.062C240.091 333.602 240.319 334.364 240.319 335.348V337.85C240.319 338.51 240.403 338.984 240.571 339.272C240.751 339.56 241.033 339.704 241.417 339.704C241.585 339.704 241.711 339.776 241.795 339.92C241.891 340.064 241.939 340.256 241.939 340.496C241.939 340.688 241.885 340.862 241.777 341.018C241.681 341.174 241.519 341.252 241.291 341.252C239.551 341.252 238.681 340.184 238.681 338.048V335.744C238.681 335.12 238.567 334.64 238.339 334.304C238.111 333.968 237.787 333.8 237.367 333.8C236.731 333.8 236.227 334.166 235.855 334.898C235.495 335.618 235.315 336.62 235.315 337.904V341C235.195 341.036 235.063 341.066 234.919 341.09C234.775 341.114 234.637 341.126 234.505 341.126C234.217 341.126 233.941 341.084 233.677 341V335.996C233.677 335.288 233.551 334.748 233.299 334.376C233.059 333.992 232.699 333.8 232.219 333.8C231.775 333.8 231.391 333.974 231.067 334.322C230.743 334.658 230.485 335.138 230.293 335.762C230.113 336.374 230.023 337.088 230.023 337.904V341C229.903 341.036 229.771 341.066 229.627 341.09C229.483 341.114 229.345 341.126 229.213 341.126C228.913 341.126 228.643 341.084 228.403 341V335.258C228.403 334.286 228.127 333.8 227.575 333.8C227.323 333.8 227.107 333.914 226.927 334.142C226.747 334.37 226.591 334.736 226.459 335.24L225.793 337.832C225.481 339.02 225.049 339.89 224.497 340.442C223.945 340.982 223.225 341.252 222.337 341.252Z" fill="white"/>
<path d="M242.186 341.252C242.03 341.252 241.904 341.18 241.808 341.036C241.712 340.892 241.664 340.706 241.664 340.478C241.664 339.962 241.88 339.704 242.312 339.704C242.66 339.704 243.014 339.65 243.374 339.542C243.734 339.422 244.154 339.224 244.634 338.948C244.166 338.132 243.932 337.172 243.932 336.068C243.932 335.324 244.07 334.67 244.346 334.106C244.622 333.53 245.006 333.08 245.498 332.756C245.99 332.42 246.548 332.252 247.172 332.252C247.7 332.252 248.168 332.378 248.576 332.63C248.984 332.87 249.302 333.206 249.53 333.638C249.758 334.07 249.872 334.568 249.872 335.132C249.872 335.9 249.644 336.602 249.188 337.238C248.744 337.874 247.988 338.564 246.92 339.308C247.304 339.584 247.82 339.722 248.468 339.722C248.636 339.722 248.768 339.794 248.864 339.938C248.96 340.082 249.008 340.274 249.008 340.514C249.008 340.742 248.954 340.922 248.846 341.054C248.738 341.186 248.582 341.252 248.378 341.252C247.802 341.252 247.262 341.156 246.758 340.964C246.254 340.772 245.834 340.508 245.498 340.172C244.346 340.892 243.242 341.252 242.186 341.252ZM245.498 335.924C245.498 336.872 245.666 337.628 246.002 338.192C246.782 337.652 247.358 337.124 247.73 336.608C248.114 336.092 248.306 335.6 248.306 335.132C248.306 334.7 248.198 334.364 247.982 334.124C247.778 333.872 247.49 333.746 247.118 333.746C246.65 333.746 246.26 333.956 245.948 334.376C245.648 334.796 245.498 335.312 245.498 335.924Z" fill="white"/>
<path d="M249.267 341.252C249.111 341.252 248.985 341.18 248.889 341.036C248.793 340.892 248.745 340.706 248.745 340.478C248.745 340.238 248.811 340.052 248.943 339.92C249.063 339.788 249.219 339.722 249.411 339.722C249.987 339.722 250.491 339.584 250.923 339.308C251.343 339.02 251.715 338.66 252.039 338.228C252.363 337.784 252.645 337.34 252.885 336.896L254.577 333.746C254.505 333.482 254.469 333.2 254.469 332.9C254.469 332.3 254.577 331.856 254.793 331.568C255.021 331.28 255.207 331.106 255.351 331.046C255.555 330.998 255.771 331.004 255.999 331.064C256.239 331.112 256.455 331.196 256.647 331.316C256.839 331.436 256.971 331.58 257.043 331.748C257.007 331.964 256.923 332.252 256.791 332.612C256.659 332.972 256.479 333.398 256.251 333.89C256.335 333.998 256.431 334.106 256.539 334.214C256.659 334.322 256.797 334.436 256.953 334.556L258.321 335.672C258.813 336.068 259.179 336.482 259.419 336.914C259.671 337.334 259.797 337.808 259.797 338.336C259.797 338.888 259.659 339.386 259.383 339.83C259.107 340.274 258.723 340.622 258.231 340.874C257.739 341.126 257.169 341.252 256.521 341.252C256.101 341.252 255.681 341.186 255.261 341.054C254.841 340.934 254.403 340.736 253.947 340.46C253.923 339.824 254.163 339.356 254.667 339.056C255.327 339.488 255.951 339.704 256.539 339.704C257.043 339.704 257.445 339.572 257.745 339.308C258.045 339.032 258.195 338.684 258.195 338.264C258.195 337.736 257.907 337.244 257.331 336.788L255.963 335.708C255.795 335.576 255.645 335.444 255.513 335.312C255.477 335.372 255.441 335.438 255.405 335.51L253.947 338.156C253.635 338.72 253.269 339.242 252.849 339.722C252.429 340.19 251.925 340.562 251.337 340.838C250.761 341.114 250.071 341.252 249.267 341.252Z" fill="white"/>
<path d="M274.283 341.252C273.059 341.252 272.003 340.982 271.115 340.442C270.239 339.902 269.567 339.146 269.099 338.174C268.631 337.202 268.397 336.062 268.397 334.754C268.397 333.362 268.649 332.144 269.153 331.1C269.669 330.044 270.383 329.222 271.295 328.634C272.207 328.046 273.251 327.752 274.427 327.752C275.363 327.752 276.215 327.944 276.983 328.328C277.763 328.7 278.393 329.222 278.873 329.894C278.813 330.11 278.657 330.332 278.405 330.56C278.165 330.788 277.925 330.938 277.685 331.01C277.253 330.446 276.761 330.032 276.209 329.768C275.657 329.504 275.063 329.372 274.427 329.372C273.575 329.372 272.825 329.594 272.177 330.038C271.529 330.482 271.025 331.1 270.665 331.892C270.305 332.684 270.125 333.608 270.125 334.664C270.125 335.66 270.287 336.53 270.611 337.274C270.947 338.018 271.433 338.6 272.069 339.02C272.717 339.428 273.503 339.632 274.427 339.632C275.231 339.632 275.927 339.47 276.515 339.146C277.103 338.822 277.637 338.366 278.117 337.778C278.345 337.85 278.579 337.982 278.819 338.174C279.059 338.366 279.227 338.558 279.323 338.75C278.771 339.566 278.057 340.19 277.181 340.622C276.317 341.042 275.351 341.252 274.283 341.252Z" fill="white"/>
<path d="M285.42 341.252C284.604 341.252 283.872 341.06 283.224 340.676C282.588 340.28 282.084 339.74 281.712 339.056C281.352 338.372 281.172 337.598 281.172 336.734C281.172 335.87 281.358 335.102 281.73 334.43C282.102 333.758 282.606 333.23 283.242 332.846C283.89 332.45 284.616 332.252 285.42 332.252C286.224 332.252 286.944 332.45 287.58 332.846C288.216 333.23 288.714 333.758 289.074 334.43C289.446 335.102 289.632 335.87 289.632 336.734C289.632 337.598 289.446 338.372 289.074 339.056C288.714 339.74 288.216 340.28 287.58 340.676C286.956 341.06 286.236 341.252 285.42 341.252ZM285.402 339.704C286.17 339.704 286.782 339.434 287.238 338.894C287.706 338.354 287.94 337.634 287.94 336.734C287.94 336.29 287.874 335.882 287.742 335.51C287.022 335.486 286.368 335.342 285.78 335.078C285.204 334.814 284.748 334.454 284.412 333.998C283.932 334.202 283.554 334.55 283.278 335.042C283.002 335.522 282.864 336.098 282.864 336.77C282.864 337.646 283.092 338.354 283.548 338.894C284.016 339.434 284.634 339.704 285.402 339.704Z" fill="white"/>
<path d="M295.585 341.252C294.781 341.252 294.133 341.066 293.641 340.694C293.161 340.31 292.825 339.77 292.633 339.074C292.573 338.834 292.519 338.57 292.471 338.282C292.423 337.982 292.387 337.598 292.363 337.13C292.339 336.65 292.321 336.032 292.309 335.276C291.913 335.372 291.499 335.45 291.067 335.51C290.635 335.57 290.245 335.6 289.897 335.6C289.477 335.6 289.171 335.546 288.979 335.438C288.787 335.33 288.691 335.12 288.691 334.808C288.691 334.592 288.733 334.436 288.817 334.34C288.901 334.232 288.997 334.178 289.105 334.178H289.591C290.035 334.178 290.485 334.142 290.941 334.07C291.385 333.998 291.841 333.896 292.309 333.764V331.316C292.309 330.248 292.321 329.342 292.345 328.598C292.369 327.854 292.417 327.23 292.489 326.726C292.561 326.222 292.651 325.796 292.759 325.448C292.879 325.088 293.029 324.764 293.209 324.476C293.473 324.044 293.797 323.732 294.181 323.54C294.577 323.348 295.009 323.252 295.477 323.252C296.413 323.252 297.133 323.666 297.637 324.494C298.141 325.322 298.393 326.462 298.393 327.914C298.393 329.042 298.195 330.068 297.799 330.992C297.415 331.916 296.887 332.714 296.215 333.386C295.543 334.046 294.775 334.556 293.911 334.916C293.911 335.948 293.929 336.734 293.965 337.274C294.013 337.814 294.079 338.246 294.163 338.57C294.259 338.906 294.427 339.182 294.667 339.398C294.919 339.614 295.261 339.722 295.693 339.722C295.861 339.722 295.993 339.794 296.089 339.938C296.197 340.07 296.251 340.256 296.251 340.496C296.251 341 296.029 341.252 295.585 341.252ZM293.911 331.424V333.296C294.751 332.864 295.441 332.174 295.981 331.226C296.521 330.266 296.791 329.15 296.791 327.878C296.791 326.882 296.671 326.12 296.431 325.592C296.203 325.064 295.885 324.8 295.477 324.8C295.009 324.8 294.655 325.076 294.415 325.628C294.295 325.916 294.193 326.282 294.109 326.726C294.037 327.158 293.983 327.746 293.947 328.49C293.923 329.234 293.911 330.212 293.911 331.424Z" fill="white"/>
<path d="M296.5 341.252C296.332 341.252 296.2 341.18 296.104 341.036C296.008 340.892 295.96 340.706 295.96 340.478C295.96 340.25 296.02 340.07 296.14 339.938C296.248 339.794 296.404 339.722 296.608 339.722C297.412 339.722 298.192 339.53 298.948 339.146C299.704 338.762 300.346 338.294 300.874 337.742C300.754 337.094 300.67 336.266 300.622 335.258C300.586 334.25 300.568 332.942 300.568 331.334H300.586L300.568 331.316C300.568 330.248 300.58 329.342 300.604 328.598C300.628 327.854 300.676 327.23 300.748 326.726C300.82 326.222 300.91 325.796 301.018 325.448C301.138 325.088 301.288 324.764 301.468 324.476C301.732 324.044 302.056 323.732 302.44 323.54C302.836 323.348 303.268 323.252 303.736 323.252C304.672 323.252 305.392 323.666 305.896 324.494C306.4 325.322 306.652 326.462 306.652 327.914C306.652 329.606 306.298 331.352 305.59 333.152C304.894 334.952 303.898 336.662 302.602 338.282C302.626 338.366 302.656 338.45 302.692 338.534C302.86 338.93 303.106 339.23 303.43 339.434C303.754 339.626 304.126 339.722 304.546 339.722C304.714 339.722 304.846 339.794 304.942 339.938C305.05 340.07 305.104 340.256 305.104 340.496C305.104 341 304.882 341.252 304.438 341.252C303.73 341.252 303.106 341.09 302.566 340.766C302.038 340.442 301.654 340.034 301.414 339.542C301.39 339.482 301.366 339.428 301.342 339.38C300.658 339.956 299.92 340.412 299.128 340.748C298.336 341.084 297.46 341.252 296.5 341.252ZM302.17 331.424C302.17 332.588 302.176 333.56 302.188 334.34C302.2 335.12 302.224 335.774 302.26 336.302C303.184 334.826 303.88 333.392 304.348 332C304.816 330.596 305.05 329.228 305.05 327.896C305.05 326.9 304.936 326.138 304.708 325.61C304.48 325.07 304.156 324.8 303.736 324.8C303.268 324.8 302.914 325.076 302.674 325.628C302.554 325.916 302.452 326.282 302.368 326.726C302.296 327.158 302.242 327.746 302.206 328.49C302.182 329.234 302.17 330.212 302.17 331.424Z" fill="white"/>
<path d="M305.363 341.252C305.207 341.252 305.075 341.18 304.967 341.036C304.859 340.892 304.805 340.718 304.805 340.514C304.805 340.262 304.865 340.07 304.985 339.938C305.093 339.794 305.243 339.722 305.435 339.722C305.999 339.722 306.569 339.65 307.145 339.506C307.709 339.362 308.315 339.104 308.963 338.732C308.603 337.94 308.423 337.052 308.423 336.068C308.423 335.336 308.561 334.688 308.837 334.124C309.125 333.548 309.509 333.092 309.989 332.756C310.481 332.42 311.033 332.252 311.645 332.252C312.161 332.252 312.623 332.372 313.031 332.612C313.439 332.852 313.763 333.176 314.003 333.584C314.243 333.992 314.363 334.454 314.363 334.97C314.363 335.738 314.093 336.47 313.553 337.166C313.013 337.862 312.227 338.516 311.195 339.128C311.663 339.524 312.311 339.722 313.139 339.722C313.295 339.722 313.421 339.794 313.517 339.938C313.625 340.082 313.679 340.274 313.679 340.514C313.679 340.742 313.619 340.922 313.499 341.054C313.391 341.186 313.241 341.252 313.049 341.252C312.377 341.252 311.759 341.144 311.195 340.928C310.631 340.7 310.169 340.388 309.809 339.992C308.273 340.832 306.791 341.252 305.363 341.252ZM309.971 336.014C309.971 336.806 310.115 337.442 310.403 337.922C311.999 336.998 312.797 336.014 312.797 334.97C312.797 334.586 312.695 334.286 312.491 334.07C312.287 333.854 312.005 333.746 311.645 333.746C311.165 333.746 310.763 333.962 310.439 334.394C310.127 334.814 309.971 335.354 309.971 336.014Z" fill="white"/>
<path d="M313.945 341.252C313.777 341.252 313.645 341.18 313.549 341.036C313.441 340.892 313.387 340.706 313.387 340.478C313.387 340.238 313.447 340.052 313.567 339.92C313.687 339.788 313.843 339.722 314.035 339.722C314.791 339.722 315.481 339.512 316.105 339.092C316.729 338.672 317.233 338.102 317.617 337.382C317.593 337.19 317.581 336.992 317.581 336.788C317.581 335.9 317.749 335.12 318.085 334.448C318.421 333.764 318.883 333.23 319.471 332.846C320.071 332.45 320.755 332.252 321.523 332.252C322.099 332.252 322.621 332.366 323.089 332.594C323.569 332.81 323.959 333.128 324.259 333.548C324.115 334.04 323.767 334.394 323.215 334.61C322.819 334.07 322.273 333.8 321.577 333.8C320.881 333.8 320.317 334.064 319.885 334.592C319.465 335.108 319.255 335.81 319.255 336.698C319.255 337.61 319.519 338.342 320.047 338.894C320.587 339.446 321.349 339.722 322.333 339.722C322.489 339.722 322.615 339.8 322.711 339.956C322.819 340.1 322.873 340.286 322.873 340.514C322.873 340.742 322.813 340.922 322.693 341.054C322.585 341.186 322.429 341.252 322.225 341.252C321.313 341.252 320.509 341.078 319.813 340.73C319.129 340.37 318.595 339.872 318.211 339.236C317.707 339.884 317.089 340.382 316.357 340.73C315.625 341.078 314.821 341.252 313.945 341.252Z" fill="white"/>
<path d="M323.178 341.252C323.01 341.252 322.872 341.18 322.764 341.036C322.656 340.892 322.602 340.706 322.602 340.478C322.602 340.238 322.662 340.052 322.782 339.92C322.902 339.788 323.058 339.722 323.25 339.722C324.198 339.722 325.032 339.476 325.752 338.984C326.484 338.492 327.06 337.814 327.48 336.95C327.9 336.086 328.11 335.096 328.11 333.98V332.252H326.778C326.694 332.06 326.652 331.82 326.652 331.532C326.652 331.244 326.694 331.004 326.778 330.812H328.11V327.626C328.338 327.542 328.614 327.5 328.938 327.5C329.226 327.5 329.502 327.542 329.766 327.626V330.812H332.448C332.544 331.004 332.592 331.244 332.592 331.532C332.592 331.82 332.544 332.06 332.448 332.252H329.766V335.978C329.766 337.178 329.946 338.102 330.306 338.75C330.678 339.386 331.2 339.704 331.872 339.704C332.22 339.704 332.394 339.968 332.394 340.496C332.394 340.724 332.334 340.904 332.214 341.036C332.106 341.18 331.95 341.252 331.746 341.252C330.918 341.252 330.228 341.006 329.676 340.514C329.124 340.01 328.728 339.314 328.488 338.426C327.924 339.314 327.186 340.01 326.274 340.514C325.374 341.006 324.342 341.252 323.178 341.252Z" fill="white"/>
<path d="M332.77 339.704C333.022 339.704 333.291 339.626 333.579 339.47C333.867 339.314 334.137 339.074 334.389 338.75C334.689 338.342 334.905 337.874 335.037 337.346C335.181 336.818 335.271 336.284 335.307 335.744V332.504C335.415 332.468 335.542 332.438 335.686 332.414C335.83 332.39 335.979 332.378 336.135 332.378C336.411 332.378 336.681 332.42 336.945 332.504V337.688C336.945 338.324 337.041 338.822 337.233 339.182C337.437 339.53 337.774 339.704 338.242 339.704C338.446 339.704 338.584 339.788 338.656 339.956C338.728 340.124 338.764 340.304 338.764 340.496C338.764 340.688 338.71 340.862 338.602 341.018C338.506 341.174 338.343 341.252 338.115 341.252C336.867 341.252 336.058 340.664 335.686 339.488C335.518 339.764 335.337 339.998 335.145 340.19C334.821 340.514 334.443 340.772 334.011 340.964C333.591 341.156 333.135 341.252 332.643 341.252C332.475 341.252 332.35 341.168 332.266 341C332.17 340.844 332.121 340.67 332.121 340.478C332.121 340.274 332.175 340.094 332.283 339.938C332.379 339.782 332.542 339.704 332.77 339.704ZM336.154 329.912C335.818 329.912 335.53 329.792 335.29 329.552C335.05 329.312 334.93 329.024 334.93 328.688C334.93 328.328 335.043 328.034 335.271 327.806C335.511 327.578 335.806 327.464 336.154 327.464C336.514 327.464 336.807 327.578 337.035 327.806C337.263 328.034 337.378 328.328 337.378 328.688C337.378 329.036 337.258 329.33 337.018 329.57C336.79 329.798 336.502 329.912 336.154 329.912Z" fill="white"/>
<path d="M339.01 341.252C338.854 341.252 338.728 341.18 338.632 341.036C338.536 340.892 338.488 340.706 338.488 340.478C338.488 339.962 338.704 339.704 339.136 339.704C339.52 339.704 339.862 339.512 340.162 339.128C340.474 338.732 340.744 338.078 340.972 337.166L341.512 335.06C342.016 333.188 342.976 332.252 344.392 332.252C345.028 332.252 345.568 332.504 346.012 333.008C346.468 333.5 346.696 334.172 346.696 335.024V337.742C346.696 339.05 347.08 339.704 347.848 339.704C348.34 339.704 348.796 339.506 349.216 339.11C349.636 338.714 349.972 338.198 350.224 337.562C350.488 336.914 350.62 336.224 350.62 335.492C350.62 335.396 350.62 335.3 350.62 335.204C350.056 334.988 349.618 334.7 349.306 334.34C349.342 333.956 349.444 333.608 349.612 333.296C349.78 332.972 349.984 332.72 350.224 332.54C350.476 332.348 350.716 332.252 350.944 332.252C351.34 332.252 351.658 332.546 351.898 333.134C352.15 333.71 352.276 334.448 352.276 335.348C352.276 336.464 352.072 337.472 351.664 338.372C351.268 339.26 350.722 339.962 350.026 340.478C349.33 340.994 348.544 341.252 347.668 341.252C346.864 341.252 346.228 340.97 345.76 340.406C345.292 339.83 345.058 339.056 345.058 338.084V335.258C345.058 334.73 344.98 334.358 344.824 334.142C344.668 333.914 344.476 333.8 344.248 333.8C343.996 333.8 343.78 333.914 343.6 334.142C343.42 334.37 343.264 334.736 343.132 335.24L342.466 337.832C342.154 339.02 341.722 339.89 341.17 340.442C340.618 340.982 339.898 341.252 339.01 341.252Z" fill="white"/>
<path d="M359.706 341.252C358.41 341.252 357.366 340.844 356.574 340.028C355.782 339.212 355.326 338.084 355.206 336.644C354.594 336.548 353.952 336.332 353.28 335.996C352.608 335.648 352.02 335.24 351.516 334.772C351.36 334.616 351.282 334.442 351.282 334.25C351.282 334.046 351.36 333.854 351.516 333.674C351.66 333.494 351.822 333.404 352.002 333.404C352.158 333.404 352.356 333.506 352.596 333.71C352.956 334.022 353.382 334.304 353.874 334.556C354.354 334.796 354.804 334.964 355.224 335.06C355.32 334.352 355.542 333.722 355.89 333.17C356.238 332.606 356.682 332.162 357.222 331.838C357.762 331.514 358.362 331.352 359.022 331.352C359.526 331.352 359.976 331.46 360.372 331.676C360.78 331.88 361.098 332.168 361.326 332.54C361.566 332.9 361.686 333.308 361.686 333.764C361.686 334.688 361.296 335.432 360.516 335.996C359.736 336.548 358.692 336.824 357.384 336.824C357.18 336.824 356.982 336.812 356.79 336.788C356.886 337.7 357.204 338.42 357.744 338.948C358.284 339.464 358.98 339.722 359.832 339.722C360.144 339.722 360.438 339.686 360.714 339.614C360.99 339.53 361.272 339.392 361.56 339.2C361.728 339.344 361.878 339.536 362.01 339.776C362.142 340.004 362.202 340.262 362.19 340.55C361.914 340.742 361.56 340.904 361.128 341.036C360.708 341.18 360.24 341.252 359.724 341.252C359.724 341.252 359.718 341.252 359.706 341.252ZM358.932 332.81C358.356 332.81 357.87 333.044 357.474 333.512C357.09 333.968 356.862 334.58 356.79 335.348C356.946 335.372 357.096 335.384 357.24 335.384C358.128 335.384 358.83 335.252 359.346 334.988C359.862 334.712 360.12 334.34 360.12 333.872C360.12 333.56 360.012 333.308 359.796 333.116C359.58 332.912 359.292 332.81 358.932 332.81Z" fill="white"/>
<mask id="mask0_1_520" style="mask-type:luminance" maskUnits="userSpaceOnUse" x="0" y="0" width="376" height="319">
<path d="M0 0H375.144V319H0V0Z" fill="white"/>
</mask>
<g mask="url(#mask0_1_520)">
<path d="M320.289 0.850586H53.0869C23.287 0.850586 -0.957031 25.0813 -0.957031 54.8679V295.367C-0.957031 303.967 3.68176 311.969 11.165 316.249C14.8468 318.335 18.9805 319.399 23.1009 319.399C27.3409 319.399 31.5544 318.282 35.3159 316.089L91.8055 282.793C101.429 277.131 112.408 274.127 123.559 274.127H320.316C350.102 274.127 374.36 249.91 374.36 220.11V54.8679C374.36 25.0813 350.102 0.850586 320.316 0.850586H320.289Z" fill="white"/>
</g>
<path d="M82 117L82 159" stroke="#213E60" stroke-width="25" stroke-linecap="round" stroke-linejoin="round"/>
<path d="M139 87L139 189" stroke="#213E60" stroke-width="25" stroke-linecap="round" stroke-linejoin="round"/>
<path d="M196 117L196 159" stroke="#213E60" stroke-width="25" stroke-linecap="round" stroke-linejoin="round"/>
<path d="M253 87L253 189" stroke="#213E60" stroke-width="25" stroke-linecap="round" stroke-linejoin="round"/>
<path d="M310 117L310 159" stroke="#213E60" stroke-width="25" stroke-linecap="round" stroke-linejoin="round"/>
</svg>
